<mxfile host="drawio-plugin" modified="2022-04-20T08:17:12.390Z" agent="5.0 (Macintosh; Intel Mac OS X 12_3_1) AppleWebKit/537.36 (KHTML, like Gecko) Chrome/89.0.4389.114 Safari/537.36" etag="3jHTjCFJIsl-m89gZJ01" version="15.5.4" type="embed"><diagram id="F44mslXG7EauhRFhVprv" name="Page-2"><mxGraphModel dx="1872" dy="419" grid="0" gridSize="10" guides="1" tooltips="1" connect="1" arrows="1" fold="1" page="1" pageScale="1" pageWidth="850" pageHeight="1100" math="0" shadow="0"><root><mxCell id="AAQ9BwyIkS6VjVYWZHyZ-0"/><mxCell id="AAQ9BwyIkS6VjVYWZHyZ-1" parent="AAQ9BwyIkS6VjVYWZHyZ-0"/><mxCell id="13" value="align" style="edgeStyle=orthogonalEdgeStyle;rounded=0;orthogonalLoop=1;jettySize=auto;html=1;exitX=0.5;exitY=1;exitDx=0;exitDy=0;sketch=1;fontFamily=Architects Daughter;fontSource=https%3A%2F%2Ffonts.googleapis.com%2Fcss%3Ffamily%3DArchitects%2BDaughter;fontStyle=1" edge="1" parent="AAQ9BwyIkS6VjVYWZHyZ-1" source="0" target="3"><mxGeometry x="0.2" relative="1" as="geometry"><mxPoint as="offset"/></mxGeometry></mxCell><mxCell id="0" value="Domains" style="rounded=0;whiteSpace=wrap;html=1;sketch=1;fillColor=#fff2cc;strokeColor=#d6b656;fontFamily=Architects Daughter;fontSource=https%3A%2F%2Ffonts.googleapis.com%2Fcss%3Ffamily%3DArchitects%2BDaughter;fontStyle=1;perimeterSpacing=0;shadow=0;glass=0;" vertex="1" parent="AAQ9BwyIkS6VjVYWZHyZ-1"><mxGeometry x="-560" y="210" width="120" height="60" as="geometry"/></mxCell><mxCell id="1" value="Decompose business into domains" style="text;html=1;strokeColor=none;fillColor=none;align=center;verticalAlign=middle;whiteSpace=wrap;rounded=0;sketch=1;fontFamily=Architects Daughter;fontSource=https%3A%2F%2Ffonts.googleapis.com%2Fcss%3Ffamily%3DArchitects%2BDaughter;fontStyle=0" vertex="1" parent="AAQ9BwyIkS6VjVYWZHyZ-1"><mxGeometry x="-410" y="208.75" width="100" height="62.5" as="geometry"/></mxCell><mxCell id="2" value="Strategic&lt;br&gt;DDD" style="text;html=1;strokeColor=none;fillColor=none;align=center;verticalAlign=middle;whiteSpace=wrap;rounded=0;sketch=1;fontFamily=Architects Daughter;fontSource=https%3A%2F%2Ffonts.googleapis.com%2Fcss%3Ffamily%3DArchitects%2BDaughter;fontStyle=1" vertex="1" parent="AAQ9BwyIkS6VjVYWZHyZ-1"><mxGeometry x="-675" y="225" width="90" height="30" as="geometry"/></mxCell><mxCell id="14" value="build" style="edgeStyle=orthogonalEdgeStyle;rounded=0;orthogonalLoop=1;jettySize=auto;html=1;exitX=0.5;exitY=1;exitDx=0;exitDy=0;sketch=1;fontFamily=Architects Daughter;fontSource=https%3A%2F%2Ffonts.googleapis.com%2Fcss%3Ffamily%3DArchitects%2BDaughter;fontStyle=1" edge="1" parent="AAQ9BwyIkS6VjVYWZHyZ-1" source="3" target="7"><mxGeometry x="0.126" relative="1" as="geometry"><mxPoint as="offset"/></mxGeometry></mxCell><mxCell id="3" value="Teams" style="rounded=0;whiteSpace=wrap;html=1;sketch=1;fillColor=#d5e8d4;strokeColor=#82b366;fontFamily=Architects Daughter;fontSource=https%3A%2F%2Ffonts.googleapis.com%2Fcss%3Ffamily%3DArchitects%2BDaughter;fontStyle=1" vertex="1" parent="AAQ9BwyIkS6VjVYWZHyZ-1"><mxGeometry x="-560" y="300" width="120" height="60" as="geometry"/></mxCell><mxCell id="4" value="Decentralize to scale" style="text;html=1;strokeColor=none;fillColor=none;align=center;verticalAlign=middle;whiteSpace=wrap;rounded=0;sketch=1;fontFamily=Architects Daughter;fontSource=https%3A%2F%2Ffonts.googleapis.com%2Fcss%3Ffamily%3DArchitects%2BDaughter;fontStyle=1;fontSize=22;" vertex="1" parent="AAQ9BwyIkS6VjVYWZHyZ-1"><mxGeometry x="-635" y="157" width="270" height="30" as="geometry"/></mxCell><mxCell id="5" value="Give engineering teams ownership over their domains" style="text;html=1;strokeColor=none;fillColor=none;align=center;verticalAlign=middle;whiteSpace=wrap;rounded=0;sketch=1;fontFamily=Architects Daughter;fontSource=https%3A%2F%2Ffonts.googleapis.com%2Fcss%3Ffamily%3DArchitects%2BDaughter;fontStyle=0" vertex="1" parent="AAQ9BwyIkS6VjVYWZHyZ-1"><mxGeometry x="-410" y="298.75" width="100" height="62.5" as="geometry"/></mxCell><mxCell id="6" value="Autonomous Product Teams" style="text;html=1;strokeColor=none;fillColor=none;align=center;verticalAlign=middle;whiteSpace=wrap;rounded=0;sketch=1;fontFamily=Architects Daughter;fontSource=https%3A%2F%2Ffonts.googleapis.com%2Fcss%3Ffamily%3DArchitects%2BDaughter;fontStyle=1" vertex="1" parent="AAQ9BwyIkS6VjVYWZHyZ-1"><mxGeometry x="-675" y="311.25" width="90" height="30" as="geometry"/></mxCell><mxCell id="15" value="generate" style="edgeStyle=orthogonalEdgeStyle;rounded=0;orthogonalLoop=1;jettySize=auto;html=1;exitX=0.5;exitY=1;exitDx=0;exitDy=0;sketch=1;fontFamily=Architects Daughter;fontSource=https%3A%2F%2Ffonts.googleapis.com%2Fcss%3Ffamily%3DArchitects%2BDaughter;fontStyle=1" edge="1" parent="AAQ9BwyIkS6VjVYWZHyZ-1" source="7" target="10"><mxGeometry x="0.1372" relative="1" as="geometry"><mxPoint as="offset"/></mxGeometry></mxCell><mxCell id="7" value="Systems" style="rounded=0;whiteSpace=wrap;html=1;sketch=1;fillColor=#dae8fc;strokeColor=#6c8ebf;fontFamily=Architects Daughter;fontSource=https%3A%2F%2Ffonts.googleapis.com%2Fcss%3Ffamily%3DArchitects%2BDaughter;fontStyle=1" vertex="1" parent="AAQ9BwyIkS6VjVYWZHyZ-1"><mxGeometry x="-560" y="394.25" width="120" height="60" as="geometry"/></mxCell><mxCell id="8" value="Build and operate self-contained systems" style="text;html=1;strokeColor=none;fillColor=none;align=center;verticalAlign=middle;whiteSpace=wrap;rounded=0;sketch=1;fontFamily=Architects Daughter;fontSource=https%3A%2F%2Ffonts.googleapis.com%2Fcss%3Ffamily%3DArchitects%2BDaughter;fontStyle=0" vertex="1" parent="AAQ9BwyIkS6VjVYWZHyZ-1"><mxGeometry x="-410" y="391.75" width="100" height="62.5" as="geometry"/></mxCell><mxCell id="9" value="Microservices" style="text;html=1;strokeColor=none;fillColor=none;align=center;verticalAlign=middle;whiteSpace=wrap;rounded=0;sketch=1;fontFamily=Architects Daughter;fontSource=https%3A%2F%2Ffonts.googleapis.com%2Fcss%3Ffamily%3DArchitects%2BDaughter;fontStyle=1" vertex="1" parent="AAQ9BwyIkS6VjVYWZHyZ-1"><mxGeometry x="-660" y="409.25" width="60" height="30" as="geometry"/></mxCell><mxCell id="10" value="Data" style="rounded=0;whiteSpace=wrap;html=1;sketch=1;fillColor=#ffe6cc;strokeColor=#d79b00;fontFamily=Architects Daughter;fontSource=https%3A%2F%2Ffonts.googleapis.com%2Fcss%3Ffamily%3DArchitects%2BDaughter;fontStyle=1" vertex="1" parent="AAQ9BwyIkS6VjVYWZHyZ-1"><mxGeometry x="-560" y="488" width="120" height="60" as="geometry"/></mxCell><mxCell id="11" value="Data Mesh" style="text;html=1;strokeColor=none;fillColor=none;align=center;verticalAlign=middle;whiteSpace=wrap;rounded=0;sketch=1;fontFamily=Architects Daughter;fontSource=https%3A%2F%2Ffonts.googleapis.com%2Fcss%3Ffamily%3DArchitects%2BDaughter;fontStyle=1" vertex="1" parent="AAQ9BwyIkS6VjVYWZHyZ-1"><mxGeometry x="-665.5" y="503" width="71" height="30" as="geometry"/></mxCell><mxCell id="12" value="Teams optimize their domains with data analytics" style="text;html=1;strokeColor=none;fillColor=none;align=center;verticalAlign=middle;whiteSpace=wrap;rounded=0;sketch=1;fontFamily=Architects Daughter;fontSource=https%3A%2F%2Ffonts.googleapis.com%2Fcss%3Ffamily%3DArchitects%2BDaughter;fontStyle=0" vertex="1" parent="AAQ9BwyIkS6VjVYWZHyZ-1"><mxGeometry x="-416.5" y="486.75" width="113" height="62.5" as="geometry"/></mxCell></root></mxGraphModel></diagram></mxfile>